<?xml version="1.0" encoding="utf-8"?>
<!-- Generator: Adobe Illustrator 28.3.0, SVG Export Plug-In . SVG Version: 6.00 Build 0)  -->
<svg version="1.1" xmlns="http://www.w3.org/2000/svg" xmlns:xlink="http://www.w3.org/1999/xlink" x="0px" y="0px"
	 viewBox="0 0 494.46 120.43" style="enable-background:new 0 0 494.46 120.43;" xml:space="preserve">
<style type="text/css">
	.st0{fill:#FFFFFF;}
	.st1{fill:#6F6F6F;}
	.st2{fill:#1391D1;}
	.st3{fill:#0095EB;}
</style>
<g id="Scalian_00000098899930519768682570000018071515312857903036_">
	<g>
		<path class="st0" d="M393.67,116.15c-1.06,0.3-2.17,0.42-3.27,0.42c-5.54,0-10.07-3.99-10.07-9.65s4.6-9.57,10.12-9.57
			c3.4,0,5.61,1.16,7.8,3.35l-1.85,1.9c-1.67-1.82-3.32-2.59-5.81-2.59c-4.11,0-7.66,2.61-7.66,6.94s3.5,6.94,7.61,6.94
			c0.71,0,1.43-0.07,2.12-0.25c1.28-0.32,3.37-1.25,3.37-2.83v-2.07h-5.83v-2.66h8.47v4.9
			C398.67,113.74,396.06,115.48,393.67,116.15z"/>
		<path class="st0" d="M416.28,108.42l3.81,7.67h-3.03l-3.69-7.58h-6.84v7.58h-2.68V97.76h10.88c3.35,0,5.78,1.92,5.78,5.42
			C420.52,105.96,418.94,107.78,416.28,108.42z M414.73,100.42h-8.2v5.41h8.2c1.82,0,3.13-0.86,3.13-2.8
			C417.86,101.11,416.48,100.42,414.73,100.42z"/>
		<path class="st0" d="M434.37,116.57c-5.56,0-9.87-4.36-9.87-9.9c0-5.39,4.63-9.45,9.89-9.45c5.44,0,9.87,4.26,9.87,9.75
			C444.26,112.38,439.68,116.57,434.37,116.57z M434.37,99.93c-4.09,0-7.24,2.93-7.24,7.07c0,3.96,3.42,6.87,7.26,6.87
			c3.94,0,7.21-3.05,7.21-7.04C441.6,102.78,438.28,99.93,434.37,99.93z"/>
		<path class="st0" d="M465.29,113.84c-1.58,2.07-4.51,2.66-6.97,2.66c-2.56,0-5.42-0.81-6.92-3.03c-0.94-1.38-1.03-2.68-1.03-4.31
			v-11.4h2.66v11.4c0,1.28,0.07,2.34,1.03,3.3c1.16,1.16,3.13,1.36,4.68,1.36c3.37,0,5.22-1.04,5.22-4.65v-11.4h2.63v11.4
			C466.6,111.03,466.48,112.31,465.29,113.84z"/>
		<path class="st0" d="M484.75,108.32h-7.97v7.77h-2.68V97.76h10.66c3.25,0,5.37,1.95,5.37,5.24
			C490.12,106.25,487.98,108.32,484.75,108.32z M484.75,100.44h-7.97v5.17h7.97c1.72,0,2.71-0.84,2.71-2.61
			C487.46,101.18,486.53,100.44,484.75,100.44z"/>
	</g>
	<g>
		<path class="st0" d="M223.99,105.07c-5.28,0-5.92-0.57-5.92-2.34c0-1.56,1.74-2.44,5.14-2.44c4.04,0,6.06,1.28,7.58,2.13l1.45-2.8
			c-1.24-0.64-4.61-2.44-9.07-2.44c-6.16,0-8.47,2.83-8.47,5.92c0,3.83,2.9,5.03,7.09,5.1c6.87,0.18,8.08,0.25,8.08,2.59
			c0,2.06-2.3,2.76-5.6,2.76c-5.17,0-7.23-1.45-9.35-2.73l-1.49,2.73c1.2,0.85,4.5,3.12,10.77,3.12c4.11,0,9.03-0.92,9.03-6.2
			C233.23,107.58,232.28,105.07,223.99,105.07z"/>
		<path class="st0" d="M249.85,113.53c-5.6,0-8.26-3.22-8.26-6.45c0-3.76,3.01-6.8,7.87-6.8c3.79,0,5.88,1.63,7.87,2.94l1.66-2.62
			c-1.49-1.13-4.39-3.44-9.53-3.44c-6.16,0-10.98,4-10.98,9.71c0,5.88,4.71,9.78,11.41,9.78c5.49,0,8.57-2.34,9.32-2.83l-1.38-2.87
			C256.86,111.59,254.14,113.53,249.85,113.53z"/>
		<polygon class="st0" points="293.88,97.73 290.77,97.73 290.77,116.09 305.08,116.09 305.08,112.97 293.88,112.97 		"/>
		<rect x="311.81" y="97.73" class="st0" width="3.12" height="18.35"/>
		<polygon class="st0" points="364.38,97.73 364.38,111.34 352.9,97.73 349.79,97.73 349.79,116.09 352.9,116.09 352.9,102.45 
			364.38,116.09 367.5,116.09 367.5,97.73 		"/>
		<path class="st0" d="M272.42,97.73l-9.92,18.35h3.54l0.97-1.83h13.83l1,1.83h3.68l-9.99-18.35H272.42z M268.32,111.76l5.62-10.51
			l5.55,10.51H268.32z"/>
		<path class="st0" d="M330.8,97.73l-9.92,18.35h3.54l0.97-1.83h13.83l1,1.83h3.69l-9.99-18.35H330.8z M326.7,111.76l5.62-10.51
			l5.55,10.51H326.7z"/>
	</g>
</g>
<g id="Wortmarke">
	<path class="st0" d="M184.95,55.64v-7.92c0-2.66-2.16-4.82-4.82-4.82h-10.79c-2.66,0-4.82,2.16-4.82,4.82v7.92H184.95z
		 M160.71,23.79h28.01c8.45,0,15.31,6.85,15.31,15.31v49.18h-19.07V69.16h-20.43v19.11H145.4V39.1
		C145.4,30.65,152.25,23.79,160.71,23.79z"/>
	<path class="st0" d="M253.03,69.16V55.61h19.1v32.67h-43.32c-8.45,0-15.31-6.85-15.31-15.31V39.1c0-8.45,6.85-15.31,15.31-15.31
		h43.32V42.9h-34.71c-2.66,0-4.82,2.16-4.82,4.82v16.62c0,2.66,2.16,4.82,4.82,4.82H253.03z"/>
	<path class="st0" d="M324.94,88.27h-28.01c-8.45,0-15.31-6.85-15.31-15.31V23.79h19.1v40.56c0,2.66,2.16,4.82,4.82,4.82l10.79-0.01
		c2.66,0,4.82-2.16,4.82-4.82V23.79l19.1,0v49.18C340.24,81.42,333.39,88.27,324.94,88.27z"/>
	<path class="st0" d="M436.86,47.72v40.55h-19.1V39.1c0-8.45,6.85-15.31,15.31-15.31h28.45V42.9h-19.84
		C439.02,42.9,436.86,45.06,436.86,47.72z"/>
	<path class="st0" d="M97.71,4.35h19.11v19.44h19.09V42.9h-19.09v21.44c0,2.66,2.16,4.82,4.82,4.82h14.27v19.11h-22.9
		c-8.45,0-15.31-6.85-15.31-15.31V4.35z"/>
	<path class="st0" d="M365.03,23.79h43.25v19.12l-34.63-0.01c-2.66,0-4.82,2.16-4.82,4.82v2l20.43,0v12.69l-20.43,0v1.94
		c0,2.66,2.16,4.82,4.82,4.82h34.63v19.11h-43.25c-8.45,0-15.31-6.85-15.31-15.31V39.1C349.73,30.65,356.58,23.79,365.03,23.79z"/>
	<path class="st0" d="M481.05,88.27h-10.04V23.79l19.11,0l0,55.41C490.12,84.21,486.06,88.27,481.05,88.27z"/>
</g>
<g id="LogoBubbles">
	<path class="st0" d="M42.9,42.9H21.35c-9.39,0-17.01-7.61-17.01-17.01V4.35H42.9V42.9z"/>
	<path class="st0" d="M88.28,42.9H49.72V4.35h21.54c9.39,0,17.01,7.61,17.01,17.01V42.9z"/>
	<path class="st0" d="M88.28,88.27H66.73c-9.39,0-17.01-7.61-17.01-17.01V49.72h38.55V88.27z"/>
</g>
<g id="Hilfslinien">
</g>
</svg>
